<?xml version="1.0" encoding="utf-8"?>
<!-- Generator: Adobe Illustrator 25.0.0, SVG Export Plug-In . SVG Version: 6.00 Build 0)  -->
<svg version="1.1" id="Layer_1" xmlns="http://www.w3.org/2000/svg" xmlns:xlink="http://www.w3.org/1999/xlink" x="0px" y="0px"
	 viewBox="0 0 172.8 172.8" style="enable-background:new 0 0 172.8 172.8;" xml:space="preserve">
<style type="text/css">
	.st0{fill:url(#SVGID_1_);}
	.st1{fill:url(#SVGID_2_);}
	.st2{fill:#FBB040;}
	.st3{fill:#414042;}
</style>
<linearGradient id="SVGID_1_" gradientUnits="userSpaceOnUse" x1="396.4489" y1="86.6927" x2="565.8146" y2="86.6927">
	<stop  offset="0" style="stop-color:#2484C6"/>
	<stop  offset="1" style="stop-color:#00529E"/>
</linearGradient>
<path class="st0" d="M546.4,2H415.9c-10.7,0-19.4,8.7-19.4,19.4V152c0,10.7,8.7,19.4,19.4,19.4h130.5c10.7,0,19.4-8.7,19.4-19.4
	V21.4C565.8,10.7,557.1,2,546.4,2z M532.7,161.8h-72.2v-19.6h50.2l-29.6-81.4L445.4,159c-0.6,1.7-2.2,2.8-4,2.8h-11.9
	c-2.9,0-4.9-2.9-4-5.6l51.6-141.8c1.3-3.7,6.6-3.7,7.9,0l51.6,141.8C537.7,158.9,535.6,161.8,532.7,161.8z"/>
<linearGradient id="SVGID_2_" gradientUnits="userSpaceOnUse" x1="209.7171" y1="86.4" x2="379.0829" y2="86.4">
	<stop  offset="0" style="stop-color:#39B54A"/>
	<stop  offset="6.219307e-02" style="stop-color:#26A547"/>
	<stop  offset="0.168" style="stop-color:#019845"/>
	<stop  offset="0.2809" style="stop-color:#009444"/>
	<stop  offset="0.6685" style="stop-color:#009444"/>
	<stop  offset="1" style="stop-color:#39B54A"/>
</linearGradient>
<path class="st1" d="M359.7,1.7H229.1c-10.7,0-19.4,8.7-19.4,19.4v130.5c0,10.7,8.7,19.4,19.4,19.4h130.5c10.7,0,19.4-8.7,19.4-19.4
	V21.1C379.1,10.4,370.4,1.7,359.7,1.7z M346,161.5h-72.2v-19.6H324l-29.6-81.4l-35.7,98.2c-0.6,1.7-2.2,2.8-4,2.8h-11.9
	c-2.9,0-4.9-2.9-4-5.6l51.6-141.8c1.3-3.7,6.6-3.7,7.9,0l51.6,141.8C350.9,158.6,348.9,161.5,346,161.5z"/>
<g>
	<path d="M55.6-120.2h-75.8c-1.8,0-3.3-1.5-3.3-3.3v-14.4c0-1.8,1.5-3.3,3.3-3.3h45.8c2.3,0,3.9-2.3,3.1-4.4l-27-74.3
		c-1.1-2.9-5.1-2.9-6.2,0L-40-122.3c-0.5,1.3-1.7,2.2-3.1,2.2h-15.3c-2.3,0-3.9-2.3-3.1-4.4l57-156.8c1.1-2.9,5.1-2.9,6.2,0
		l57,156.8C59.5-122.4,57.9-120.2,55.6-120.2z"/>
</g>
<g>
	<path class="st2" d="M139.4,12.2H20.6C10.9,12.2,3,20.1,3,29.9v118.8c0,9.8,7.9,17.7,17.7,17.7h118.8c9.8,0,17.7-7.9,17.7-17.7
		V29.9C157.1,20.1,149.2,12.2,139.4,12.2z M101,156.4H43.8v-15.5h39.8L60.2,76.5l-28.3,77.8c-0.5,1.3-1.7,2.2-3.1,2.2h-9.4
		c-2.3,0-3.9-2.3-3.1-4.5L57,39.6c1.1-2.9,5.2-2.9,6.3,0L104.2,152C104.9,154.1,103.3,156.4,101,156.4z"/>
	<path class="st3" d="M147.1,40.9L168,20.1c1.5-1.5,1.5-4,0-5.6c-0.7-0.7-1.7-1.2-2.8-1.2h-55.1V5.5c0-2.2-1.8-3.9-3.9-3.9
		c-2.2,0-3.9,1.8-3.9,3.9v98.4h-7.9c-2.2,0-3.9,1.8-3.9,3.9s1.8,3.9,3.9,3.9h23.6c2.2,0,3.9-1.8,3.9-3.9s-1.8-3.9-3.9-3.9h-7.9V68.5
		h55.1c2.2,0,3.9-1.8,3.9-3.9c0-1-0.4-2-1.2-2.8L147.1,40.9z"/>
</g>
</svg>
